<svg xmlns="http://www.w3.org/2000/svg" width="865.76" height="682.89" viewBox="0 0 865.76 682.89"><polygon points="130.86 207.95 222.86 403.95 614.36 404.45 521.73 207.95 130.86 207.95" fill="#ccc"/><polygon points="130.86 207.95 123.36 220.45 210.86 404.45 222.86 403.95 130.86 207.95" fill="#b3b3b3"/><polygon points="281.36 331.45 280.86 333.95 334.5 398.45 336.8 398.45 281.36 331.45" fill="#ecb889"/><polygon points="281.36 331.45 280.86 333.95 334.5 398.45 336.8 398.45 281.36 331.45" fill="#fff" opacity="0.3"/><path d="M602.36,650.09l-50-155.64,15-76H556.29l-29.93,149h-352l-20-64,11.07-85H153.78L123.36,649.28h-11v13.06H212.72v-12H200.36l-21-68.92,354-1-10,70h-10v11.89H614.72V650.09Zm-452-120.64,12.41,38H145.36Zm37,120H134.9l8.46-68h23.83Zm347.63,1,20.37-110,34,110Z" fill="gray"/><polygon points="533.91 519.45 513.36 662.45 519.36 662.45 539.36 519.45 533.91 519.45" fill="#3f4347"/><rect x="521.36" y="496.45" width="68" height="23" fill="#3f4347"/><path d="M541.36,460.45l-40,10s-17,0-24,30l-31,122h24s45-76,46-113a31.14,31.14,0,0,0,10.88.77l34.94-40.7S548.36,464.45,541.36,460.45Z" fill="#2f2e41"/><path d="M541.36,460.45l-40,10s-17,0-24,30l-31,122h24s45-76,46-113a31.14,31.14,0,0,0,10.88.77l34.94-40.7S548.36,464.45,541.36,460.45Z" opacity="0.2"/><path d="M589.36,496.45h96.93a8.07,8.07,0,0,1,8.07,8.07v14.93a0,0,0,0,1,0,0h-105a0,0,0,0,1,0,0v-23A0,0,0,0,1,589.36,496.45Z" fill="#2e3135"/><path d="M713.82,305.45h33.06a6.52,6.52,0,0,1,6.39,7.82l-17.84,87.66a6.51,6.51,0,0,1-6.52,5.22l-70.55-1.42,43-99.28Z" fill="#2e3135"/><polygon points="706.82 305.16 747.86 305.16 727.34 405.98 651.36 404.45 694.36 305.16 706.82 305.16" fill="#3f4347"/><path d="M679.36,442.45a184.78,184.78,0,0,1-23.3,3h0c-11,.76-24.49.7-36.69-2,0,0,0-48.89-8-56,0,0,0,0,0,0h0l.14,0,.2,0c.82.13,2.86.45,5.8.87l.48.07c17.82,1.49,40.39,5.13,59.67,3.35C677.71,391.81,672.36,416.45,679.36,442.45Z" fill="#f9b499"/><path d="M669.45,415.62a11.91,11.91,0,0,0-.51-3.14c-4.63-14.44-33.21-20.17-50.9-24,12.44,2.71,47.32,3,59.67,3.35,0,0-5.35,24.64,1.65,50.64a184.78,184.78,0,0,1-23.3,3A37.26,37.26,0,0,0,669.45,415.62Z" fill="#f7a48b"/><rect x="112.36" y="404.45" width="117" height="14" fill="#999"/><rect x="229.36" y="404.45" width="385" height="14" fill="gray"/><path d="M282.7,323.45h-7.34l-9.39,81h83.66Zm-1.34,8,55.44,67H273.36Z" fill="#ecb889"/><polygon points="275.36 323.45 273.36 323.45 263.86 404.45 265.97 404.45 275.36 323.45" fill="#ecb889"/><polygon points="275.36 323.45 273.36 323.45 263.86 404.45 265.97 404.45 275.36 323.45" fill="#fff" opacity="0.3"/><polygon points="307.8 246.54 381.04 404.45 394.58 404.45 321.11 246.54 307.8 246.54" fill="#ecb889"/><polygon points="307.8 246.54 305.08 246.54 378.33 404.45 381.04 404.45 307.8 246.54" fill="#ecb889"/><polygon points="307.8 246.54 305.08 246.54 378.33 404.45 381.04 404.45 307.8 246.54" fill="#fff" opacity="0.3"/><path d="M285.38,208v-82.7s.8-37.33,34.8-51.95a61,61,0,0,1,21.49-4.7c13.46-.59,37.8.9,47.69,17.85l13,38h6l-11-33s-8-28-40-28H344a61.35,61.35,0,0,0-21.83,3.92c-16,6.09-40.14,21-42.78,56.08V208Z" fill="#ecb889"/><path d="M394.36,163.45h22a0,0,0,0,1,0,0v6.43a6.57,6.57,0,0,1-6.57,6.57h-8.86a6.57,6.57,0,0,1-6.57-6.57v-6.43A0,0,0,0,1,394.36,163.45Z" fill="#ecb889"/><path d="M694.36,284.24c-15,12.8-33,11.21-33,11.21-21-2-32.71-25-32.71-25l22.71,2,1.42-5.19a19.53,19.53,0,0,0,10.58,3.19c6.11,0,11.73-3,16.07-7.95l-1.07,15.27Z" fill="#f9b499"/><path d="M651.36,272.45s14.41,5.69,21.7-4.66c0,0-8.86,6.28-20.28-.53Z" fill="#f7a48b"/><path d="M734.36,354.45c-18,3-34,11.59-34,11.59l-6-19,0,.09c-1.94,4.27-4.69,12.32-6.4,17.49a31.21,31.21,0,0,0-1.56,9.77v16.07c-6.19,1.93-18.81,1.92-32,1.18-20.86-1.17-43-4.18-43-4.18,1-9-8-32-8-32-5-21-2-33-2-33l-23,2L563,295.51l39.35-19.06c17-9,26.29-6,26.29-6s11.71,23,32.71,25c0,0,18,1.59,33-11.21,22,6.79,23,23.38,23,23.38Z" fill="#ecb889"/><path d="M694.32,347.12c-1.94,4.27-4.69,12.32-6.4,17.49a31.21,31.21,0,0,0-1.56,9.77v16.07c-6.19,1.93-18.81,1.92-32,1.18A85.42,85.42,0,0,0,667.86,390a12.27,12.27,0,0,0,9.66-13.87,11.34,11.34,0,0,0-3.89-6.74,13.79,13.79,0,0,0-7.38-3.14c-19.09-2.31-21.89-9.77-21.89-9.77,44,20,44-28,44-28Z" opacity="0.2"/><path d="M611.42,387.46l.14,0-.17,0Z" fill="none" stroke="red" stroke-miterlimit="10"/><path d="M679.36,442.45s5,18,7,25c0,0,8,38-34,38l-90.18,2.33S574.86,541,565.86,596l-5,34-23.29-.5-8.21-109s-12-40,13-49l77-28S654.86,447,679.36,442.45Z" fill="#2f2e41"/><path d="M466.16,221.9c-1.82,13.56-15.57,118.46-12.3,170.19,0,0,30.5,40.36,70.5,60.36,0,0,72,33,105,42,0,0,16,7,10-3,0,0-14.31-68,1.34-108.5l6.87-19s-79.93-6.5-156.57-111.5c0,0-16.64-24-17.64-28,0,0-1.48-6.68-5.09-5.34A3.43,3.43,0,0,0,466.16,221.9Z" fill="#ecb889"/><path d="M466.16,221.9c-1.82,13.56-15.57,118.46-12.3,170.19,0,0,30.5,40.36,70.5,60.36,0,0,72,33,105,42,0,0,16,7,10-3,0,0-14.31-68,1.34-108.5l6.87-19s-79.93-6.5-156.57-111.5c0,0-16.64-24-17.64-28,0,0-1.48-6.68-5.09-5.34A3.43,3.43,0,0,0,466.16,221.9Z" fill="#fff" opacity="0.3"/><path d="M516.77,284.16s21.89,25.61,46.24,41.95c0,0,9,.87,14.16-3.9L563,295.51l-7.65,2.94S532.18,287.87,516.77,284.16Z" fill="#f9b499"/><path d="M461.63,258.87s-8.27,1.25-8.27,8.91c0,0-3.63,14.09,2.18,16.38,0,0,12.82,8.29,13.82,1.29,0,0,2.51,0,2.56-2a2.29,2.29,0,0,0-1.94-2.23c-2.66-.48-8.38-1.9-10.21-5.3,0,0,6.71,3.59,12.15,2.06,0,0,5-1.31,1.21-4.43,0,0-5.77-.11-7.77-2.11,0,0,10.37,2.14,9.18-2.43,0,0-.14-2-4.19-2.46a25.36,25.36,0,0,1-6.16-1.45c-1.64-.63-3.12-1.41-3-2.11Z" fill="#f9b499"/><path d="M469.36,285.45a27.58,27.58,0,0,1-13-5c4.45,1.41,8.65,3.25,13,5Z" fill="#f7a48b"/><path d="M576.16,426a5.77,5.77,0,0,1-1.64-.25c-57.75-17.69-86-51-91.06-57.54a5.57,5.57,0,0,1-1.18-3.15c-1.18-22.21,2.24-49.27,4.38-63.42h0a5.62,5.62,0,0,1,9.81-2.83c25.77,29.76,72.43,55.62,86.12,62.84a5.61,5.61,0,0,1,3,5.37l-3.81,53.74a5.63,5.63,0,0,1-5.6,5.24ZM488.64,302c-2.13,14.08-5.53,41-4.36,63a3.52,3.52,0,0,0,.76,2c5,6.42,32.89,39.35,90.06,56.86a3.63,3.63,0,0,0,4.67-3.22l3.81-53.74a3.62,3.62,0,0,0-1.92-3.46c-13.77-7.26-60.71-33.28-86.7-63.3a3.62,3.62,0,0,0-6.32,1.81Z" fill="#fff"/><path d="M504.07,388.45a1,1,0,0,1-1-1c-1.27-30.75,6.6-72.72,6.68-73.14a1,1,0,0,1,2,.38c-.08.41-7.91,42.16-6.64,72.68a1,1,0,0,1-1,1Z" fill="#fff"/><path d="M505.27,352a1,1,0,0,1-.64-.23l-21.29-17.65a1,1,0,0,1,1.28-1.54l21.29,17.65a1,1,0,0,1,.13,1.41A1,1,0,0,1,505.27,352Z" fill="#fff"/><path d="M520.61,343.35l-.94,0a19.74,19.74,0,0,1-13.11-6.47,1,1,0,0,1,1.54-1.28,18,18,0,0,0,11.7,5.75c5.29.27,10.67-2.19,16-7.34a1,1,0,0,1,1.41,0,1,1,0,0,1,0,1.42C531.74,340.69,526.17,343.35,520.61,343.35Z" fill="#fff"/><path d="M526.48,378.4a1,1,0,0,1-.61-.21l-22.12-16.95a1,1,0,0,1-.19-1.4,1,1,0,0,1,1.41-.19l22.12,17a1,1,0,0,1,.18,1.4A1,1,0,0,1,526.48,378.4Z" fill="#fff"/><path d="M583.12,388.45a.88.88,0,0,1-.39-.08l-20.77-9a1,1,0,0,1-.59-1l3-25a1,1,0,1,1,2,.24l-2.91,24.26,20.08,8.71a1,1,0,0,1-.4,1.91Z" fill="#fff"/><path d="M543.72,412.45a1,1,0,0,1-1-1v-23a1,1,0,0,1,.45-.84,1,1,0,0,1,.94-.09l38.19,16a1,1,0,0,1-.77,1.85L544.72,390v21.49A1,1,0,0,1,543.72,412.45Z" fill="#fff"/><path d="M718.39,406,697.12,515.54a4.83,4.83,0,0,1-4.74,3.91H610.57a10.8,10.8,0,0,0-10.68,9.23L580.35,662.34h5.22L604.84,529a3.54,3.54,0,0,1,4.08-3h0a3.53,3.53,0,0,1,2.9,2.83l25.24,133.47h6.71l-29-138.09,54.34.17a10.14,10.14,0,0,1,9.91,8.17l25.62,129.75h6.71L685.93,536s-1.14-4-2.72-8.29a1.64,1.64,0,0,1,1.54-2.21h10.61s7,1,9-15l19.93-104.79Z" fill="#3f4347"/><path d="M448.43,622.45,447,630a6.86,6.86,0,0,1-4,5l-18.7,8.4s4,6,4,11h29.05s10.5.88,6-11.37a9.08,9.08,0,0,1-.08-5.87L468,622.45Z" fill="#f9b499"/><path d="M424.36,643.45s-25.86-4.21-20.43,18.89h60.16A3.94,3.94,0,0,0,468,658.4h0a4,4,0,0,0-3.94-3.94H428.36S428.36,649.45,424.36,643.45Z" fill="#ecb889"/><path d="M541.36,634.45l-20.71,8.7a31.85,31.85,0,0,1,4.71,11.31h30.5s7.21-3.61,3.86-11.31c0,0-4.65-7.7-4.5-13.7H540.63Z" fill="#f9b499"/><path d="M705.88,363.38l4.48,9.07a294.37,294.37,0,0,0-55,35,6.84,6.84,0,0,1-6.66,0s-8.9-7.58-13.62-1.79c0,0-.2,2.79,7.54,5.79,0,0-10.37,2-17.82,0,0,0-10.45,0,1.05,5.51a7.81,7.81,0,0,1-5.82.44,1.7,1.7,0,0,0-1.95,2.36c.93,1.87,3.91,4,12.37,4.63a.15.15,0,0,1,0,.3c-1.8.48-6,1.44-9.33,1a1.53,1.53,0,0,0-1.33,2.55c1.59,1.7,4.6,3.35,10.27,3.33a.33.33,0,0,1,.13.64c-2.8,1.07-7.25,3.32-6.25,6.46a1.3,1.3,0,0,0,1.23.85c2.92,0,12.86-.49,23.49-8.5,0,0,9.48-9.53,19.07-12.53l57.59-28s17-6,12-22l-5.63-13.52A112.84,112.84,0,0,0,705.88,363.38Z" fill="#f9b499"/><path d="M639.36,414.45a22.39,22.39,0,0,0,2,17c-4.28-4.4-4.91-11.72-2-17Z" fill="#f7a48b"/><rect x="461.36" y="20.45" width="225" height="126" rx="7.59" fill="#ecb889"/><path d="M517.36,43.45a31,31,0,1,0,31,31A31,31,0,0,0,517.36,43.45Zm0,56a25,25,0,1,1,25-25A25,25,0,0,1,517.36,99.45Z" fill="#fff"/><path d="M565,69.45H517.74a4.38,4.38,0,0,0-4.38,4.38v47.24a4.39,4.39,0,0,0,4.38,4.38H565a4.39,4.39,0,0,0,4.38-4.38V73.83A4.38,4.38,0,0,0,565,69.45Zm-3.62,49h-40v-42h40Z" fill="#fff"/><rect x="587.36" y="43.45" width="71" height="15" fill="#fff"/><rect x="587.36" y="67.45" width="47" height="15" fill="#2f2e41"/><rect x="121.36" y="21.45" width="124" height="125" rx="5.55" fill="#ecb889"/><path d="M221.86,52.21h-56a1.5,1.5,0,0,1,0-3h56a1.5,1.5,0,0,1,0,3Z" fill="#fff"/><path d="M165.86,58.82a1.5,1.5,0,0,1-1.5-1.5V44.1a1.5,1.5,0,1,1,3,0V57.32A1.5,1.5,0,0,1,165.86,58.82Z" fill="#fff"/><path d="M221.86,58.82a1.5,1.5,0,0,1-1.5-1.5V44.1a1.5,1.5,0,0,1,3,0V57.32A1.5,1.5,0,0,1,221.86,58.82Z" fill="#fff"/><path d="M150.86,124.21a1.5,1.5,0,0,1-1.5-1.5v-56a1.5,1.5,0,1,1,3,0v56A1.5,1.5,0,0,1,150.86,124.21Z" fill="#fff"/><path d="M157.47,68.21H144.25a1.5,1.5,0,0,1,0-3h13.22a1.5,1.5,0,0,1,0,3Z" fill="#fff"/><path d="M157.47,124.21H144.25a1.5,1.5,0,0,1,0-3h13.22a1.5,1.5,0,0,1,0,3Z" fill="#fff"/><path d="M193.86,120.45a1.42,1.42,0,0,1-.57-.12l-28-11.42a1.5,1.5,0,0,1-.93-1.39v-28a1.49,1.49,0,0,1,.89-1.37l28.86-12.81a1.51,1.51,0,0,1,1.25,0L222.5,78.16a1.52,1.52,0,0,1,.86,1.36v27.14a1.49,1.49,0,0,1-.9,1.37l-28,12.29A1.58,1.58,0,0,1,193.86,120.45Zm-26.5-13.94,26.48,10.81,26.52-11.64V80.47L194.7,68.36,167.36,80.49Z" fill="#fff"/><path d="M194.36,93a1.43,1.43,0,0,1-.58-.12L165.28,80.9a1.5,1.5,0,1,1,1.16-2.77l27.91,11.69,27.42-11.75a1.49,1.49,0,0,1,2,.79,1.51,1.51,0,0,1-.79,2l-28,12A1.52,1.52,0,0,1,194.36,93Z" fill="#fff"/><path d="M193.86,120.45h0a1.5,1.5,0,0,1-1.47-1.53l.5-27.5a1.5,1.5,0,0,1,3,0l-.5,27.5A1.51,1.51,0,0,1,193.86,120.45Z" fill="#fff"/><path d="M688.36,236.45c0,10.46-3.47,19.81-8.93,26.05-4.34,5-10,7.95-16.07,7.95a19.53,19.53,0,0,1-10.58-3.19c-8.52-5.41-14.42-17.17-14.42-30.81,0-18.78,11.19-34,25-34S688.36,217.67,688.36,236.45Z" fill="#f9b499"/><path d="M642.85,217s19.51-9.57,29.51,5.43c0,0,0,6.14,6,7.07,0,0-5,12.93,0,13.93l9.8-2.79a45.28,45.28,0,0,1-8.74,21.83s21.94-7,20.94-35c0,0,22,9,22-18,0,0,2-23-22-15,0,0-6,1-12,10.5C688.36,205,653.34,185.58,642.85,217Z" fill="#2f2e41"/><path d="M700.36,228a.5.5,0,0,1-.5-.5c0-16.46-11.59-22-11.71-22a.5.5,0,1,1,.42-.91c.12.06,12.29,5.83,12.29,23A.51.51,0,0,1,700.36,228Z" fill="#ecb889"/><ellipse cx="684.86" cy="243.45" rx="6.5" ry="9" fill="#f9b499"/><path d="M519.36,641.45s-24,0-18.43,20.89h60.16A3.94,3.94,0,0,0,565,658.4h0a4,4,0,0,0-3.94-3.94H525.36A29,29,0,0,0,519.36,641.45Z" fill="#ecb889"/><path d="M392.43,124.45h24.86a11.07,11.07,0,0,1,11.07,11.07v31.93a0,0,0,0,1,0,0h-47a0,0,0,0,1,0,0V135.52A11.07,11.07,0,0,1,392.43,124.45Z" fill="#2f2e41"/></svg>