<svg width="200" height="200" viewBox="0 0 200 200" fill="none" xmlns="http://www.w3.org/2000/svg">
<circle cx="100" cy="100" r="96" fill="#ECB889"/>
<path d="M13 143.322V29C13 26.7909 14.7909 25 17 25H101.168H183C185.209 25 187 26.7909 187 29V143.322C187 145.531 185.209 147.322 183 147.322H125.107C123.817 147.322 122.772 148.367 122.772 149.657V160.787C122.772 161.755 123.556 162.539 124.523 162.539H149C149.671 162.539 150.215 163.083 150.215 163.754V174.785C150.215 175.456 149.671 176 149 176L51.3025 176.498C51.1028 176.499 50.9049 176.461 50.7202 176.385C50.1545 176.152 49.7852 175.601 49.7852 174.989V163.754C49.7852 163.083 50.3291 162.539 51 162.539H76.6443C77.2892 162.539 77.8121 162.016 77.8121 161.371V149.117C77.8121 148.126 77.0081 147.322 76.0164 147.322H17C14.7909 147.322 13 145.531 13 143.322Z" fill="#232534"/>
<rect x="20" y="31" width="160" height="101" fill="#F1CBA9"/>
</svg>
