<svg width="200" height="200" viewBox="0 0 200 200" fill="none" xmlns="http://www.w3.org/2000/svg">
<circle cx="100.5" cy="100.5" r="82.5" fill="#781344"/>
<path d="M55.136 117.36L56.608 112.944L81.312 123.44V127.984L56.608 138.48L55.136 134.064L75.424 125.68L55.136 117.36Z" fill="#DD267E"/>
<path d="M128.8 142C127.861 139.013 126.496 135.813 124.704 132.4C122.997 128.901 121.077 125.531 118.944 122.288C116.811 118.96 114.549 115.888 112.16 113.072C109.856 110.171 107.637 107.739 105.504 105.776V142H89.76V62.768H105.504V95.664C107.381 93.2747 109.344 90.6293 111.392 87.728C113.44 84.8267 115.36 81.9253 117.152 79.024C119.029 76.1227 120.736 73.264 122.272 70.448C123.808 67.632 125.088 65.072 126.112 62.768H143.904C142.709 65.072 141.259 67.7173 139.552 70.704C137.931 73.6053 136.053 76.6773 133.92 79.92C131.787 83.0773 129.483 86.32 127.008 89.648C124.619 92.976 122.101 96.176 119.456 99.248C122.101 101.808 124.789 104.752 127.52 108.08C130.251 111.408 132.811 114.992 135.2 118.832C137.675 122.587 139.893 126.469 141.856 130.48C143.819 134.405 145.397 138.245 146.592 142H128.8Z" fill="#FFF7F5"/>
</svg>
