<svg width="200" height="200" viewBox="0 0 200 200" fill="none" xmlns="http://www.w3.org/2000/svg">
<circle cx="100.5" cy="100.5" r="82.5" fill="#781344"/>
<path d="M45.024 104.68L65.312 113.064L63.84 117.48L39.136 106.984V102.44L63.84 91.944L65.312 96.36L45.024 104.68ZM109.856 131.56H104.416L122.272 76.264H127.584L109.856 131.56ZM135.136 96.36L136.608 91.944L161.312 102.44V106.984L136.608 117.48L135.136 113.064L155.424 104.68L135.136 96.36Z" fill="#AC1B61"/>
<path d="M90.4 121C89.9307 119.507 89.248 117.907 88.352 116.2C87.4987 114.451 86.5387 112.765 85.472 111.144C84.4053 109.48 83.2747 107.944 82.08 106.536C80.928 105.085 79.8187 103.869 78.752 102.888V121H70.88V81.384H78.752V97.832C79.6907 96.6373 80.672 95.3147 81.696 93.864C82.72 92.4133 83.68 90.9627 84.576 89.512C85.5147 88.0613 86.368 86.632 87.136 85.224C87.904 83.816 88.544 82.536 89.056 81.384H97.952C97.3547 82.536 96.6293 83.8587 95.776 85.352C94.9653 86.8027 94.0267 88.3387 92.96 89.96C91.8933 91.5387 90.7413 93.16 89.504 94.824C88.3093 96.488 87.0507 98.088 85.728 99.624C87.0507 100.904 88.3947 102.376 89.76 104.04C91.1253 105.704 92.4053 107.496 93.6 109.416C94.8373 111.293 95.9467 113.235 96.928 115.24C97.9093 117.203 98.6987 119.123 99.296 121H90.4Z" fill="#FFF7F5"/>
</svg>
